<svg fill="none" height="24" viewBox="0 0 24 24" width="24" xmlns="http://www.w3.org/2000/svg"><path clip-rule="evenodd" d="m12 .75c-6.35375 0-11.5 5.14625-11.5 11.5 0 5.0887 3.29187 9.3869 7.86312 10.9106.575.1006.79063-.2444.79063-.5462 0-.2732-.01437-1.1788-.01437-2.1419-2.88938.5319-3.63688-.7044-3.86688-1.3513-.12937-.3306-.69-1.3512-1.17875-1.6243-.4025-.2157-.9775-.7475-.01437-.7619.90562-.0144 1.5525.8337 1.76812 1.1787 1.035 1.7394 2.68813 1.2507 3.34938.9488.10062-.7475.4025-1.2506.73312-1.5381-2.55875-.2875-5.2325-1.2794-5.2325-5.6782 0-1.2506.44562-2.28558 1.17875-3.09058-.115-.2875-.5175-1.46625.115-3.0475 0 0 .96313-.30187 3.1625 1.17875.92005-.25875 1.89755-.38812 2.87505-.38812s1.955.12937 2.875.38812c2.1993-1.495 3.1624-1.17875 3.1624-1.17875.6325 1.58125.23 2.76.115 3.0475.7332.805 1.1788 1.82558 1.1788 3.09058 0 4.4132-2.6881 5.3907-5.2469 5.6782.4169.3593.7763 1.0493.7763 2.1275 0 1.5381-.0144 2.7743-.0144 3.1625 0 .3018.2156.6612.7906.5462 4.5425-1.5237 7.8344-5.8362 7.8344-10.9106 0-6.35375-5.1462-11.5-11.5-11.5z" fill-rule="evenodd"/></svg>