<svg fill="none" height="24" viewBox="0 0 24 24" width="24" xmlns="http://www.w3.org/2000/svg"><path clip-rule="evenodd" d="m9.51699 1.42957c-.03157-.0294-.06368-.05821-.09621-.08651-.62538-.47742-1.85894-.479345-2.40657.13865l-.03837.04673c-.10795.12366-.20306.25141-.28558.39392-.22936.45232-.26041.91641-.1172 1.39986.13809.43298.41462.81365.81816 1.02391.52635.22165 1.1496.25017 1.68595.04943.40217-.16842.68866-.47734.86723-.87773l.03684-.08621c.12546-.27213.12546-.27213.10316-.91551-.0276-.37329-.24933-.798-.52398-1.04937zm2.78561.14824h3.0542v4.64672h2.7611v2.5211h-2.7611l.0016 1.11495.0023 1.11492.0012.4518.0001.0572c.0008.304.0012.608.0015.912.0003.3123.001.6247.002.9371.0006.1925.0009.385.0009.5774 0 .1481.0005.2961.0012.4441.0002.0604.0002.1208.0001.1812v.0001c-.0084.2937-.0125.4383.0155.5764.0272.134.0847.2619.1979.5138.2618.2335.5548.2838.8927.2662.4579-.0333.9458-.1697 1.3069-.4688l.044-.0296c.0445.015.062.0209.0738.0325.0077.0075.013.0174.0217.0337l.0188.0549.0219.0627.0231.069.0248.0718c.027.0781.0535.1564.0801.2346l.0834.2428.0568.1652c.0613.1785.1242.3563.1886.5338l.0244.0676.0002.0005v.0001c.0459.1268.046.127.0925.2541.0211.0576.042.1152.0628.1729l.019.051c.0226.0633.0394.1166.0359.1844-.0285.0561-.0586.0756-.1119.1082l-.0581.0357-.0638.0375-.0663.0393c-1.1581.6734-2.6842.9833-3.9943.6277-.6794-.1985-1.3016-.5954-1.6615-1.2242-.3464-.6468-.4019-1.3107-.3999-2.0326l-.0002-.1774c-.0001-.1444.0001-.2888.0003-.4333.0003-.1732.0002-.3464.0002-.5197-.0001-.3196.0001-.6392.0004-.9589.0003-.3162.0005-.6323.0005-.9485v-.0597l.0001-.3003c.0001-.7077.0004-1.4155.0009-2.12325.0004-.68731.0008-1.37462.001-2.06193v-.06427l.0002-.639.0004-1.30156v-.06044l.0008-1.83297v-.05253zm-5.44884 4.32552h3.12757v.00027c.00216 1.5435.00288 2.05508.00339 2.56667l.00075.88653.00004.05178.00081 1.11452.00038.5467.00003.0549c.00042.5858.00115 1.1717.00205 1.7575.00093.6029.00153 1.2058.00173 1.8087l.00009.2565.00002.051c.00011.2689.00057.5378.00115.8067.00058.2715.00078.543.00065.8146-.00006.1466.00003.2932.00056.4399.00291.8449-.00722 1.6917-.23156 2.512l-.01581.0611c-.21349.8223-.62301 1.5311-1.2059 2.1387l-.03826.0406c-.193.2049-.39627.3849-.62146.5526l-.0477.0358c-.36041.2689-.74145.4991-1.13735.7103l-.06593.0352-.06159.0323-.05417.0284c-.04916.0225-.09552.0364-.14818.0478-.10678-.1694-.20567-.3429-.30389-.5175l-.05195-.0921c-.12669-.2249-.25195-.4505-.37667-.6765-.09141-.1656-.18379-.3305-.27692-.495l-.03592-.0639c-.05639-.1-.11337-.1996-.17187-.2984l-.03208-.0551c-.0197-.0338-.0397-.0675-.06005-.1009-.03853-.0667-.05308-.092-.05538-.1183-.0014-.0159.00172-.0323.00673-.0586.05213-.0606.10927-.0985.176-.1421.20115-.1355.38667-.2888.57115-.4465l.03996-.0341c.25257-.218.45323-.4666.61976-.7568l.04171-.0706c.10631-.1954.17162-.3975.2347-.6106l.02501-.0842c.1025-.3599.12118-.6979.12077-1.0696l.00043-.1513c.00038-.1379.00047-.2759.0005-.4138.00008-.1326.00038-.2653.00069-.3979l.00011-.049c.00054-.2579.00091-.5158.00116-.7738.00025-.2703.00061-.5407.0011-.8111l.00009-.051.00048-.2565c.00111-.605.002-1.2101.00276-1.8151.00074-.5876.00158-1.1752.00255-1.7629l.00009-.0549.00092-.5461.00183-1.11242.00008-.05166c.00179-1.10101.00324-2.20203.00469-3.30305z" fill-rule="evenodd"/></svg>