<svg fill="none" height="24" viewBox="0 0 24 24" width="24" xmlns="http://www.w3.org/2000/svg"><path clip-rule="evenodd" d="m1.9617 4h-1.9617v10.0906h1.3705v-4.59517h.20154c.30362 0 .60664-.01002.89862-.02135l1.46281 4.61652h1.47223l-1.60956-4.91049c.45025-.18099.80848-.46832 1.06033-.85099.28313-.43022.42398-.96882.42398-1.58812 0-.89917-.27224-1.59871-.84875-2.06735-.56876-.46234-1.40226-.67365-2.47-.67365zm-.5912 4.24586v-3.00972h.65838c.65106 0 1.09947.13426 1.38358.37388.2777.23423.43031.59668.43031 1.13098 0 .52589-.15497.88924-.43541 1.12599-.28648.24185-.73556.37887-1.37848.37887z" fill-rule="evenodd"/><path d="m7.53212 4h-1.771v10.0906h1.24957v-7.91569c.11434.34591.2387.70449.37428 1.07424l2.4903 6.84145h1.30063v-10.0906h-1.24954v5.99406c0 .20104 0 .41944.00344.65414-.11381-.3409-.23121-.67988-.35066-1.01547z"/><path d="m12.074 4h1.3839v8.7873h3.05v1.3033h-4.4339z"/><path d="m5.79269 16.629c0-.6121.41573-1.1142 1.01758-1.1142.33054 0 .60883.121.80484.3555.19304.231.29491.5583.30652.9531l.00406.1383h-.64556l-.0078-.126c-.01588-.2565-.06946-.4285-.14477-.5333-.06958-.0969-.16422-.1462-.30073-.1462-.12867 0-.22433.0452-.28926.1185-.06647.0751-.11183.1925-.11183.3543 0 .1532.05954.3082.15979.4223.09747.1117.21234.2132.33848.3171.039.0322.07946.0648.12076.0982.08955.0724.18333.1481.27365.2276.21957.1926.38964.3853.50417.6017.11546.2182.17086.4536.17086.7257 0 .3735-.10662.6928-.30484.9207-.19968.2296-.48325.3558-.8121.3558-.34904 0-.63932-.125-.84084-.3708-.19823-.2418-.29791-.5849-.30369-1.0001l-.00189-.1362h.65061l.00624.1278c.0133.2722.0674.4489.14768.5554.07395.0981.1821.1524.35293.1524.1344 0 .24224-.0532.31904-.1469.07869-.0961.13172-.2439.13172-.4401 0-.3973-.23204-.6368-.72266-1.0315-.24567-.1984-.45361-.3808-.59781-.5946-.14793-.2193-.22515-.4653-.22515-.7845z"/><path d="m.0537976 15.5989h.8779854l.502857 2.3668c.03171.1496.06263.3063.09213.4703.02856-.1541.05934-.3088.0921-.4641l.50862-2.373h.88331v4.615h-.63305v-2.8992l-.61803 2.8992h-.47169l-.606702-2.883v2.883h-.6275304z"/><path clip-rule="evenodd" d="m4.84795 15.5989h-.78335l-.92023 4.615h.67898l.23185-1.2804h.78021l.23184 1.2804h.70679zm-.6556 2.6571.25383-1.3932.25721 1.3932z" fill-rule="evenodd"/><path d="m8.28539 15.5989h.87799l.50286 2.3668c.03171.1496.06263.3063.09213.4703.02856-.1541.05933-.3088.0921-.4641l.50863-2.373h.8833v4.615h-.6331v-2.8992l-.61798 2.8992h-.4717l-.6067-2.883v2.883h-.62753z"/><path clip-rule="evenodd" d="m13.0795 15.5989h-.7833l-.9202 4.615h.6789l.2319-1.2804h.7802l.2319 1.2804h.7067zm-.6556 2.6571.2539-1.3932.2572 1.3932z" fill-rule="evenodd"/><path clip-rule="evenodd" d="m14.1457 15.5989h.8741c.2517 0 .4747.0449.6665.1433.1929.099.3468.2482.465.4449.2329.3873.3277.9594.3277 1.7103 0 .7566-.0934 1.3331-.3253 1.7233-.1177.1982-.2714.3488-.4647.4486-.1922.0993-.416.1446-.6692.1446h-.8741zm.6828.6444v3.3023c.0309.0018.0599.0028.0864.0028.1849 0 .3252-.0301.4334-.0858.1062-.0547.1904-.1385.257-.2621.1383-.2566.1965-.6748.1965-1.3151 0-.6343-.0582-1.0478-.1956-1.3013-.0662-.122-.1498-.2048-.2553-.2588-.1075-.0551-.2469-.0849-.4305-.0849-.0293 0-.0599.0011-.0919.0029z" fill-rule="evenodd"/><path d="m18.8656 15.5989h-2.0628v4.615h2.1125v-.6715h-1.4353v-1.3784h1.0157v-.6654h-1.0157v-1.2282h1.3856z"/><path clip-rule="evenodd" d="m19.1047 15.5989h.863c.4468 0 .8065.0963 1.055.3163.2518.2229.3655.5511.3655.9603 0 .5194-.2018.9226-.6001 1.117l.6166 2.0488.8859-4.4424h.7833l.9261 4.615h-.7068l-.2318-1.2804h-.7802l-.2319 1.2804h-1.3158l-.6004-2.0636c-.106.0043-.2156.0077-.3255.0077h-.0257v2.0559h-.6772zm.6772.6535v1.2462h.2134c.255 0 .4221-.0592.5252-.154.101-.0928.1629-.2406.1629-.4691 0-.2327-.0611-.3799-.1608-.4714-.1019-.0936-.2685-.1517-.5273-.1517zm2.8902.6104-.2538 1.3932h.511z" fill-rule="evenodd"/></svg>