<svg fill="none" height="24" viewBox="0 0 24 24" width="24" xmlns="http://www.w3.org/2000/svg"><path d="m14.4572 13.9414c.0515.0618.0494.1483-.0021.2039-.0351.0371-.0659.0453-.1751.0453h-.1338v-.313l.1359.0083c.1133.0061.1442.0164.1751.0555z"/><g clip-rule="evenodd" fill-rule="evenodd"><path d="m14.5684 13.3977c.21.0577.3891.2203.4983.4551.0515.1091.0577.1441.0577.348 0 .212-.0042.2346-.0659.3644-.0804.173-.2245.3192-.3871.3994-.1154.0557-.14.0598-.3706.0598-.2327 0-.2554-.0041-.3707-.0598-.1647-.0823-.3068-.2285-.3871-.3994-.0618-.1298-.0658-.1524-.0658-.3644 0-.1085.0011-.1675.0103-.2164.009-.0469.0253-.0847.0555-.1481.1833-.3892.5807-.5601 1.0254-.4386zm-.6075 1.2252h.1853v-.2696l.0866.0061c.0843.0062.0906.0123.1605.1339l.0722.1275.107.0021h.1091l-.1812-.2965.0577-.037c.1523-.0926.177-.3357.0453-.4757-.0722-.0762-.1607-.0967-.4201-.0967h-.2224z"/><path d="m22.1 12c0 5.5781-4.5219 10.1-10.1 10.1-5.57812 0-10.09998-4.5219-10.09998-10.1 0-5.57812 4.52186-10.09998 10.09998-10.09998 5.5781 0 10.1 4.52186 10.1 10.09998zm-13.7178-6.14771-.56726-.56726-.49194.49195.56579.56592-1.05969 1.06835-.00146.00147c-1.0553 1.06702-1.05811 1.06995-1.13721 1.2157-.21472.39526-.21399.7727.00513 1.13244.04052.06641.11914.15601.21093.24524.06348.0619.13343.1237.20142.1774.04761.0376.09424.0714.13709.0986l.13.0795.51721-.51736-.10632-.03613c-.24024-.08277-.43408-.29615-.45764-.50538-.0044-.04443.00061-.10046.01342-.15734.01233-.05494.03187-.11072.05701-.15735.047-.08789.17908-.22571 1.0492-1.09583l.99511-.99512.69825.69825.49194-.49207-.69824-.69812.45813-.46399.45532-.46399-.26782-.27624-.27063-.27625zm6.7047 2.04493c.289-.54383.8069-.9303 1.4345-1.06983.2071-.04577.763-.03186.9702.02393.5519.14941.9802.46826 1.2192.90454l.0737.13342-.0855.04785c-.1139.06629-.253.14392-.3657.20533-.0678.03686-.126.06787-.1636.08691-.0257.01306-.0418.02051-.0446.02051-.0079 0-.0477-.05579-.0896-.12549-.1633-.26501-.4623-.48413-.769-.56384-.1654-.04383-.4682-.04383-.6295-.00196-.3567.09363-.7013.37452-.8727.71119-.2151.42236-.249 1.13964-.0797 1.63366.2072.60366.769.98616 1.4046.95036.4821-.0259.8865-.279 1.1296-.7052l.0578-.1037.3128.1793.3127.1813-.0319.0618c-.1235.2391-.4522.6017-.6953.765-.4641.3108-1.0339.4324-1.5858.3347-.6893-.1195-1.303-.5976-1.5738-1.2232-.3129-.72527-.2809-1.78106.0716-2.44658zm-2.4907 12.08878.5358-.5358-.6316-.6401-.6331-.6387-.017-.4878c-.0084-.268-.0155-.4921-.0127-.5005.0029-.0056.6415.1565 1.4212.3638l1.4155.375.6317-.6317-.1071-.0282c-.0184-.0049-.1092-.0282-.2531-.0651-.3103-.0796-.8673-.222-1.4769-.379-.3404-.0869-.658-.1684-.9213-.2361-.3004-.0773-.53-.1369-.6418-.1663-.0476-.0125-.0751-.0206-.0751-.0206-.0057-.0028-.0226-.4652-.0381-1.0277-.0155-.5598-.0297-1.0222-.0339-1.0264-.0042-.0043-.1649.148-.3567.3397l-.3496.3497.0451 1.2012.0465 1.2027-1.29842-1.2901-1.29578-1.29-.5498.5498zm1.3812-6.7448c-.422.136-.6774.4983-.6774.9596 0 .3129.0885.5271.3047.7329.1978.1895.3975.2656.6961.2656.3026 0 .5085-.0822.7124-.2861.2059-.208.284-.4036.2861-.7124 0-.3603-.1584-.661-.4468-.8545-.2161-.1421-.6095-.1894-.8751-.1051z"/><path d="m12 24c6.6274 0 12-5.3726 12-12 0-6.62744-5.3726-12-12-12-6.62744 0-12 5.37256-12 12 0 6.6274 5.37256 12 12 12zm10.5-12c0 5.799-4.701 10.5-10.5 10.5-5.79895 0-10.5-4.701-10.5-10.5 0-5.79895 4.70105-10.5 10.5-10.5 5.799 0 10.5 4.70105 10.5 10.5z"/></g></svg>