<svg fill="none" height="24" viewBox="0 0 24 24" width="24" xmlns="http://www.w3.org/2000/svg"><path d="m17.6569 2h-11.31401c-2.3987 0-4.34289 1.96752-4.34289 4.3941v11.4456c0 2.4253 1.94437 4.3915 4.34289 4.3915h11.31401c2.3982 0 4.3431-1.9662 4.3431-4.3915v-11.4456c0-2.4264-1.9451-4.3941-4.3431-4.3941zm-6.7609 12.262-1.4051 2.9181c-.17975.3794-.55791.5985-.94342.5985-.15395 0-.31184-.0405-.46006-.1056-.52207-.2569-.74-.8983-.48336-1.4199l1.3999-2.9261c.25647-.5321.88607-.7511 1.40494-.4875.5251.2569.7416.8905.4871 1.4225zm-.0303-4.32775c-.2502.25295-.5988.39635-.95918.39635-.35629 0-.70685-.1434-.9583-.39635-.25198-.25546-.39948-.61281-.39948-.97397s.1475-.708.39948-.96617c.50272-.51636 1.41858-.51636 1.91728 0 .2526.25817.3974.60501.3974.96617.0001.36116-.1447.71851-.3972.97397zm5.6125 4.13605c-.2532 1.1945-.7217 2.3119-1.3972 3.3079-.2011.2987-.5241.4604-.8572.4604-.1979 0-.402-.06-.5805-.1864-.4762-.3235-.5956-.974-.2714-1.4552.5189-.7705.8807-1.6362 1.0806-2.5647.2179-1.0273.2179-2.1109 0-3.1358-.1999-.92831-.5619-1.79404-1.0806-2.57002-.3244-.47592-.205-1.12663.2771-1.4537.4696-.32472 1.1137-.20342 1.432.27903.6755.99608 1.144 2.10567 1.3972 3.30789.279 1.3074.279 2.6987 0 4.0106z"/></svg>